<svg width="45" height="45" viewBox="0 0 45 45" fill="none" xmlns="http://www.w3.org/2000/svg">
<path d="M39.1003 9.64969L29.7253 0.274658C29.5495 0.098877 29.3115 0 29.0624 0H9.37494C7.30775 0 5.625 1.68179 5.625 3.75003V41.2501C5.625 43.3182 7.30775 45 9.37503 45H35.6251C37.6922 45 39.375 43.3182 39.375 41.25V10.3125C39.375 10.0635 39.2761 9.82547 39.1003 9.64969ZM30 3.20071L36.1743 9.37503H31.8749C30.8404 9.37503 30 8.53365 30 7.50006V3.20071ZM37.5 41.25C37.5 42.2836 36.6595 43.1249 35.6251 43.1249H9.37503C8.34047 43.1249 7.50006 42.2836 7.50006 41.25V3.75003C7.50006 2.71644 8.34056 1.87506 9.37503 1.87506H28.125V7.50006C28.125 9.56821 29.8078 11.25 31.875 11.25H37.5V41.25Z" fill="#01BC68"/>
<path d="M32.8125 26.25H12.1875C11.6693 26.25 11.25 26.6693 11.25 27.1875C11.25 27.7057 11.6693 28.1251 12.1875 28.1251H32.8126C33.3308 28.1251 33.7501 27.7057 33.7501 27.1875C33.75 26.6693 33.3307 26.25 32.8125 26.25Z" fill="#01BC68"/>
<path d="M32.8125 20.625H12.1875C11.6693 20.625 11.25 21.0443 11.25 21.5625C11.25 22.0807 11.6693 22.5001 12.1875 22.5001H32.8126C33.3308 22.5001 33.7501 22.0807 33.7501 21.5625C33.75 21.0443 33.3307 20.625 32.8125 20.625Z" fill="#01BC68"/>
<path d="M32.8125 31.875H12.1875C11.6693 31.875 11.25 32.2943 11.25 32.8125C11.25 33.3307 11.6693 33.7501 12.1875 33.7501H32.8126C33.3308 33.7501 33.7501 33.3307 33.7501 32.8125C33.75 32.2943 33.3307 31.875 32.8125 31.875Z" fill="#01BC68"/>
<path d="M23.4375 37.5H12.1875C11.6693 37.5 11.25 37.9193 11.25 38.4375C11.25 38.9557 11.6693 39.3751 12.1875 39.3751H23.4375C23.9557 39.3751 24.3751 38.9557 24.3751 38.4375C24.375 37.9193 23.9557 37.5 23.4375 37.5Z" fill="#01BC68"/>
<path d="M20.6251 15.9374C20.6251 16.4556 21.0444 16.8749 21.5626 16.8749H32.8126C33.3308 16.8749 33.7501 16.4556 33.7501 15.9374C33.7501 15.4192 33.3308 14.9999 32.8126 14.9999H21.5626C21.0444 15 20.6251 15.4193 20.6251 15.9374Z" fill="#01BC68"/>
<path d="M14.0625 15.0001H12.1875C11.6693 15.0001 11.25 15.4194 11.25 15.9376C11.25 16.4558 11.6693 16.8751 12.1875 16.8751H13.1251C13.1251 17.3933 13.5444 17.8126 14.0626 17.8126C14.5808 17.8126 15.0001 17.3933 15.0001 16.8751V16.7024C16.0889 16.314 16.875 15.2831 16.875 14.0625C16.875 12.5116 15.6134 11.25 14.0625 11.25C13.5461 11.25 13.125 10.8298 13.125 10.3125C13.125 9.79526 13.5461 9.37497 14.0625 9.37497H15.9375C16.4557 9.37497 16.875 8.95564 16.875 8.43744C16.875 7.91923 16.4557 7.49991 15.9375 7.49991H14.9999C14.9999 6.9817 14.5806 6.56238 14.0624 6.56238C13.5442 6.56238 13.1249 6.9817 13.1249 7.49991V7.67261C12.0361 8.061 11.25 9.09187 11.25 10.3125C11.25 11.8634 12.5116 13.125 14.0625 13.125C14.5789 13.125 15 13.5452 15 14.0625C15 14.5798 14.5789 15.0001 14.0625 15.0001Z" fill="#01BC68"/>
</svg>
