<svg height="512pt" viewBox="-27 0 512 512" width="512pt" xmlns="http://www.w3.org/2000/svg"><path d="m166 119.5c0-12.957031-10.542969-23.5-23.5-23.5h-26c-12.957031 0-23.5 10.542969-23.5 23.5s10.542969 23.5 23.5 23.5h26c12.957031 0 23.5-10.542969 23.5-23.5zm-23.5 8.5h-26c-4.6875 0-8.5-3.8125-8.5-8.5s3.8125-8.5 8.5-8.5h26c4.6875 0 8.5 3.8125 8.5 8.5s-3.8125 8.5-8.5 8.5zm0 0"/><path d="m219.886719 385.734375-16.445313-5.667969c-.027344-.007812-.046875-.019531-.074218-.027344l-37.367188-12.886718v-26.898438c29.769531-15.257812 49-46.011718 49-80.230468v-32.09375c5.664062-1.347657 10.476562-5.007813 13.300781-10.15625 2.984375-5.449219 3.375-11.882813 1.078125-17.652344l-14.910156-37.398438c-.347656-.867187-.859375-1.628906-1.46875-2.292968v-27.933594c0-36.667969-29.828125-66.496094-66.492188-66.496094h-34.015624c-36.664063 0-66.492188 29.828125-66.492188 66.492188v31.566406l-14.347656 35.996094c-2.304688 5.78125-1.90625 12.222656 1.09375 17.679687 2.820312 5.125 7.613281 8.773437 13.253906 10.125v32.410156c0 33.40625 18.382812 63.570313 47 79.164063v27.71875l-37.363281 12.886718c-.027344.011719-.050781.019532-.078125.027344l-16.445313 5.671875c-23.394531 8.066407-39.113281 30.117188-39.113281 54.863281v52.027344c0 10.402344 8.46875 18.871094 18.871094 18.871094h23.953125c.832031.316406 1.730469.5 2.675781.5h52c.945312 0 1.84375-.183594 2.675781-.5h58.648438c.832031.316406 1.730469.5 2.675781.5h52c.941406 0 1.84375-.183594 2.675781-.5h23.949219c10.40625 0 18.875-8.46875 18.875-18.871094v-16.628906c0-4.144531-3.359375-7.5-7.5-7.5-4.144531 0-7.5 3.355469-7.5 7.5v16.628906c0 2.132813-1.738281 3.871094-3.875 3.871094h-19.125v-22.441406c0-7.199219-5.859375-13.058594-13.058594-13.058594h-40.882812c-7.199219 0-13.058594 5.859375-13.058594 13.058594v22.441406h-17v-81.4375l.894531-1.160156 23.128907 24.722656c1.421874 1.519531 3.40625 2.375 5.476562 2.375.140625 0 .28125-.003906.425781-.011719 2.21875-.125 4.269531-1.230469 5.59375-3.019531l31.15625-41.957031 11.316407 3.902343c17.351562 5.984376 29.007812 22.335938 29.007812 40.6875v5.398438c0 4.144531 3.355469 7.5 7.5 7.5s7.5-3.355469 7.5-7.5v-5.398438c0-24.746093-15.71875-46.796874-39.113281-54.867187zm-123.554688-3.863281 15.476563 20.011718-18.644532 19.929688-22.964843-30.929688zm33.167969 18.367187-21.5-27.800781v-26.492188l7.640625 2.59375c4.652344 1.582032 9.542969 2.375 14.4375 2.375 4.832031 0 9.667969-.773437 14.269531-2.316406l6.652344-2.230468v26.070312zm-83.914062-194.628906 13-32.609375h82.414062c4.144531 0 7.5-3.355469 7.5-7.5s-3.355469-7.5-7.5-7.5h-80v-25.507812c0-28.390626 23.101562-51.492188 51.492188-51.492188h34.015624c28.390626 0 51.492188 23.101562 51.492188 51.492188v25.507812h-27c-4.144531 0-7.5 3.355469-7.5 7.5s3.355469 7.5 7.5 7.5h31.414062l13.027344 32.679688c.636719 1.597656.527344 3.378906-.296875 4.890624-.480469.871094-1.617187 2.398438-3.875 2.828126-52.953125 10.140624-107.285156 10.117187-161.488281-.0625-2.265625-.425782-3.410156-1.953126-3.894531-2.828126-.828125-1.515624-.941407-3.296874-.300781-4.898437zm15.414062 54.660156v-29.789062c23.421875 3.667969 46.84375 5.507812 70.164062 5.507812 23.085938 0 46.070313-1.804687 68.835938-5.398437v29.433594c0 29.859374-17.566406 56.554687-44.390625 68.578124-.035156.015626-.074219.035157-.109375.050782-2.199219.980468-4.453125 1.875-6.773438 2.65625l-9.148437 3.070312c-6.164063 2.066406-12.949219 2.054688-19.109375-.039062l-8.476562-2.882813c-30.5-10.363281-50.992188-38.972656-50.992188-71.1875zm29 236.230469h-37v-20.5h37zm79-20.5h37v20.5h-37zm-64 20.5v-22.441406c0-7.199219-5.859375-13.058594-13.058594-13.058594h-40.882812c-7.199219 0-13.058594 5.859375-13.058594 13.058594v22.441406h-19.128906c-2.132813 0-3.871094-1.738281-3.871094-3.871094v-52.027344c0-18.351562 11.65625-34.703124 29.007812-40.6875l11.316407-3.902343 31.15625 41.960937c1.324219 1.785156 3.375 2.890625 5.59375 3.015625.144531.007813.285156.011719.425781.011719 2.070312 0 4.054688-.855469 5.476562-2.375l23.128907-24.722656.894531 1.160156v81.4375zm60.835938-74.6875-18.644532-19.929688 15.476563-20.011718 26.136719 9.011718zm0 0"/><path d="m441.410156 0h-287.820312c-8.597656 0-15.589844 6.992188-15.589844 15.589844v21.054687c0 4.144531 3.355469 7.5 7.5 7.5s7.5-3.355469 7.5-7.5v-21.054687c0-.324219.265625-.589844.589844-.589844h171.410156v219h-85.5c-4.144531 0-7.5 3.355469-7.5 7.5s3.355469 7.5 7.5 7.5h201.910156c8.597656 0 15.589844-6.992188 15.589844-15.589844v-217.820312c0-8.597656-6.992188-15.589844-15.589844-15.589844zm-67.410156 234v-52.1875l14.230469 9.851562c2.566406 1.78125 5.96875 1.78125 8.539062 0l14.230469-9.851562v52.1875zm68-.589844c0 .324219-.265625.589844-.589844.589844h-15.410156v-58.019531c0-4.457031-2.453125-8.507813-6.398438-10.578125-3.949218-2.066406-8.675781-1.777344-12.34375.757812l-14.757812 10.21875-14.757812-10.21875c-3.664063-2.535156-8.394532-2.828125-12.34375-.757812-3.945313 2.070312-6.398438 6.121094-6.398438 10.578125v58.019531h-19v-219h101.410156c.324219 0 .589844.265625.589844.589844zm0 0"/><path d="m309 50.5c0-4.144531-3.355469-7.5-7.5-7.5h-125c-4.144531 0-7.5 3.355469-7.5 7.5s3.355469 7.5 7.5 7.5h117.5v50h-64.246094c-4.144531 0-7.5 3.355469-7.5 7.5s3.355469 7.5 7.5 7.5h71.746094c4.144531 0 7.5-3.355469 7.5-7.5zm0 0"/><path d="m241.421875 171c-4.144531 0-7.5 3.355469-7.5 7.5s3.355469 7.5 7.5 7.5h60.078125c4.144531 0 7.5-3.355469 7.5-7.5v-33c0-4.144531-3.355469-7.5-7.5-7.5h-70.410156c-4.144532 0-7.5 3.355469-7.5 7.5s3.355468 7.5 7.5 7.5h62.910156v18zm0 0"/></svg>