<svg width="150" height="150" viewBox="0 0 150 150" fill="none" xmlns="http://www.w3.org/2000/svg">
<path d="M56.543 35.0098C56.543 31.2138 53.4542 28.125 49.6582 28.125H42.041C38.245 28.125 35.1562 31.2138 35.1562 35.0098C35.1562 38.8058 38.245 41.8945 42.041 41.8945H49.6582C53.4542 41.8945 56.543 38.8058 56.543 35.0098ZM49.6582 37.5H42.041C40.6677 37.5 39.5508 36.3831 39.5508 35.0098C39.5508 33.6365 40.6677 32.5195 42.041 32.5195H49.6582C51.0315 32.5195 52.1484 33.6365 52.1484 35.0098C52.1484 36.3831 51.0315 37.5 49.6582 37.5Z" fill="#01BC68"/>
<path d="M72.3301 113.008L67.5121 111.348C67.5041 111.345 67.4984 111.342 67.4904 111.34L56.543 107.564V99.6838C65.2645 95.2137 70.8984 86.2038 70.8984 76.1787V66.7763C72.5578 66.3815 73.9677 65.3091 74.7952 63.8008C75.6695 62.2044 75.7839 60.3195 75.111 58.6292L70.7428 47.6727C70.6409 47.4186 70.491 47.1954 70.3125 47.0009V38.8172C70.3125 28.0746 61.5738 19.3359 50.8324 19.3359H40.8669C30.1254 19.3359 21.3867 28.0746 21.3867 38.8161V48.064L17.1833 58.6098C16.5081 60.3035 16.6248 62.1906 17.5037 63.7894C18.33 65.2908 19.7342 66.3597 21.3867 66.7557V76.2508C21.3867 86.0378 26.7723 94.875 35.1562 99.4434V107.564L24.21 111.34C24.202 111.343 24.1951 111.345 24.1871 111.348L19.3691 113.009C12.5153 115.372 7.91016 121.833 7.91016 129.082V144.325C7.91016 147.372 10.3912 149.854 13.4388 149.854H20.4563C20.7001 149.946 20.9633 150 21.2402 150H36.4746C36.7516 150 37.0148 149.946 37.2585 149.854H54.4407C54.6844 149.946 54.9477 150 55.2246 150H70.459C70.7348 150 70.9991 149.946 71.2429 149.854H78.2593C81.308 149.854 83.7891 147.372 83.7891 144.325V139.453C83.7891 138.239 82.8049 137.256 81.5918 137.256C80.3776 137.256 79.3945 138.239 79.3945 139.453V144.325C79.3945 144.95 78.8853 145.459 78.2593 145.459H72.6562V138.884C72.6562 136.775 70.9396 135.059 68.8305 135.059H56.8531C54.744 135.059 53.0273 136.775 53.0273 138.884V145.459H48.0469V121.6L48.3089 121.26L55.085 128.503C55.5016 128.949 56.0829 129.199 56.6895 129.199C56.7307 129.199 56.7719 129.198 56.8142 129.196C57.4642 129.159 58.065 128.835 58.453 128.311L67.5808 116.019L70.8961 117.162C75.9796 118.916 79.3945 123.706 79.3945 129.082V130.664C79.3945 131.878 80.3776 132.861 81.5918 132.861C82.806 132.861 83.7891 131.878 83.7891 130.664V129.082C83.7891 121.833 79.184 115.372 72.3301 113.008ZM36.1324 111.876L40.6666 117.739L35.2043 123.578L28.4763 114.516L36.1324 111.876ZM45.8496 117.257L39.5508 109.113V101.351L41.7892 102.111C43.1522 102.575 44.585 102.807 46.019 102.807C47.4346 102.807 48.8514 102.58 50.1995 102.128L52.1484 101.475V109.113L45.8496 117.257ZM21.2654 60.2371L25.074 50.6836H49.2188C50.433 50.6836 51.416 49.7005 51.416 48.4863C51.416 47.2721 50.433 46.2891 49.2188 46.2891H25.7812V38.8161C25.7812 30.4985 32.5493 23.7305 40.8669 23.7305H50.8324C59.1499 23.7305 65.918 30.4985 65.918 38.8161V46.2891H58.0078C56.7936 46.2891 55.8105 47.2721 55.8105 48.4863C55.8105 49.7005 56.7936 50.6836 58.0078 50.6836H67.2112L71.0278 60.2577C71.2143 60.7258 71.1823 61.2476 70.9408 61.6905C70.8 61.9457 70.467 62.3932 69.8055 62.5191C54.2919 65.49 38.3743 65.4831 22.4945 62.5008C21.8307 62.376 21.4954 61.9286 21.3535 61.6722C21.1109 61.2282 21.0777 60.7063 21.2654 60.2371ZM25.7812 76.2508V67.5236C32.6431 68.5982 39.505 69.1372 46.3371 69.1372C53.1006 69.1372 59.8343 68.6085 66.5039 67.5556V76.1787C66.5039 84.9266 61.3575 92.7475 53.4988 96.27C53.4885 96.2746 53.4771 96.2803 53.4668 96.2849C52.8225 96.5721 52.1622 96.8342 51.4824 97.0631L48.8022 97.9626C46.9963 98.568 45.0085 98.5645 43.2037 97.9511L40.7204 97.1066C31.7848 94.0704 25.7812 85.6888 25.7812 76.2508ZM34.2773 145.459H23.4375V139.453H34.2773V145.459ZM57.4219 139.453H68.2617V145.459H57.4219V139.453ZM38.6719 145.459V138.884C38.6719 136.775 36.9553 135.059 34.8461 135.059H22.8687C20.7596 135.059 19.043 136.775 19.043 138.884V145.459H13.4388C12.8139 145.459 12.3047 144.95 12.3047 144.325V129.082C12.3047 123.706 15.7196 118.916 20.8031 117.162L24.1184 116.019L33.2462 128.312C33.6342 128.835 34.235 129.159 34.885 129.196C34.9274 129.198 34.9686 129.199 35.0098 129.199C35.6163 129.199 36.1977 128.949 36.6142 128.503L43.3903 121.26L43.6523 121.6V145.459H38.6719ZM56.4949 123.578L51.0326 117.739L55.5668 111.876L63.224 114.516L56.4949 123.578Z" fill="#01BC68"/>
<path d="M137.23 0H52.9072C50.3883 0 48.3398 2.04849 48.3398 4.56734V10.7357C48.3398 11.9499 49.3229 12.933 50.5371 12.933C51.7513 12.933 52.7344 11.9499 52.7344 10.7357V4.56734C52.7344 4.47235 52.8122 4.39453 52.9072 4.39453H103.125V68.5547H78.0762C76.862 68.5547 75.8789 69.5377 75.8789 70.752C75.8789 71.9662 76.862 72.9492 78.0762 72.9492H137.23C139.748 72.9492 141.797 70.9007 141.797 68.3819V4.56734C141.797 2.04849 139.748 0 137.23 0ZM117.48 68.5547V53.2654L121.65 56.1516C122.401 56.6734 123.398 56.6734 124.151 56.1516L128.32 53.2654V68.5547H117.48ZM137.402 68.3819C137.402 68.4769 137.325 68.5547 137.23 68.5547H132.715V51.5568C132.715 50.251 131.996 49.0643 130.84 48.4577C129.683 47.8523 128.299 47.937 127.224 48.6797L122.9 51.6735L118.577 48.6797C117.503 47.937 116.117 47.8512 114.96 48.4577C113.805 49.0643 113.086 50.251 113.086 51.5568V68.5547H107.52V4.39453H137.23C137.325 4.39453 137.402 4.47235 137.402 4.56734V68.3819Z" fill="#01BC68"/>
<path d="M98.4375 14.7949C98.4375 13.5807 97.4545 12.5977 96.2402 12.5977H59.6191C58.4049 12.5977 57.4219 13.5807 57.4219 14.7949C57.4219 16.0091 58.4049 16.9922 59.6191 16.9922H94.043V31.6406H75.2209C74.0067 31.6406 73.0236 32.6237 73.0236 33.8379C73.0236 35.0521 74.0067 36.0352 75.2209 36.0352H96.2402C97.4545 36.0352 98.4375 35.0521 98.4375 33.8379V14.7949Z" fill="#01BC68"/>
<path d="M78.6392 50.0977C77.425 50.0977 76.4419 51.0807 76.4419 52.2949C76.4419 53.5091 77.425 54.4922 78.6392 54.4922H96.2402C97.4544 54.4922 98.4375 53.5091 98.4375 52.2949V42.627C98.4375 41.4127 97.4544 40.4297 96.2402 40.4297H75.6122C74.398 40.4297 73.415 41.4127 73.415 42.627C73.415 43.8412 74.398 44.8242 75.6122 44.8242H94.043V50.0977H78.6392Z" fill="#01BC68"/>
</svg>
