<svg width="150" height="150" viewBox="0 0 150 150" fill="none" xmlns="http://www.w3.org/2000/svg">
<g clip-path="url(#clip0)">
<path d="M13.4594 43.2976H19.7056C20.9175 43.2976 21.9006 42.3145 21.9006 41.1026C21.9006 39.8895 20.9175 38.9065 19.7056 38.9065H13.4594C12.2463 38.9065 11.2633 39.8895 11.2633 41.1026C11.2633 42.3145 12.2463 43.2976 13.4594 43.2976Z" fill="#01BC68"/>
<path d="M64.8102 38.9065H26.7002C25.4883 38.9065 24.5052 39.8895 24.5052 41.1026C24.5052 42.3145 25.4883 43.2976 26.7002 43.2976H64.8102C66.0233 43.2976 67.0063 42.3145 67.0063 41.1026C67.0063 39.8895 66.0233 38.9065 64.8102 38.9065Z" fill="#01BC68"/>
<path d="M59.0218 50.0347H45.0852C43.8721 50.0347 42.889 51.0166 42.889 52.2296C42.889 53.4427 43.8721 54.4246 45.0852 54.4246H59.0218C60.2337 54.4246 61.2168 53.4427 61.2168 52.2296C61.2168 51.0166 60.2337 50.0347 59.0218 50.0347Z" fill="#01BC68"/>
<path d="M37.7953 50.0347H33.4511C32.2392 50.0347 31.2561 51.0166 31.2561 52.2296C31.2561 53.4427 32.2392 54.4246 33.4511 54.4246H37.7953C39.0083 54.4246 39.9914 53.4427 39.9914 52.2296C39.9914 51.0166 39.0083 50.0347 37.7953 50.0347Z" fill="#01BC68"/>
<path d="M26.4599 50.0347H13.4594C12.2463 50.0347 11.2633 51.0166 11.2633 52.2296C11.2633 53.4427 12.2463 54.4246 13.4594 54.4246H26.4599C27.6718 54.4246 28.6549 53.4427 28.6549 52.2296C28.6549 51.0166 27.6718 50.0347 26.4599 50.0347Z" fill="#01BC68"/>
<path d="M9.74808 14.8693C9.74808 18.4215 12.6377 21.3112 16.19 21.3112C19.7422 21.3112 22.633 18.4215 22.633 14.8693C22.633 11.317 19.7422 8.42627 16.19 8.42627C12.6377 8.42627 9.74808 11.317 9.74808 14.8693ZM18.2419 14.8693C18.2419 16 17.3206 16.9212 16.19 16.9212C15.0581 16.9212 14.138 16 14.138 14.8693C14.138 13.7375 15.0581 12.8174 16.19 12.8174C17.3206 12.8174 18.2419 13.7375 18.2419 14.8693Z" fill="#01BC68"/>
<path d="M26.1497 14.8693C26.1497 18.4215 29.0405 21.3112 32.5928 21.3112C36.145 21.3112 39.0347 18.4215 39.0347 14.8693C39.0347 11.317 36.145 8.42627 32.5928 8.42627C29.0405 8.42627 26.1497 11.317 26.1497 14.8693ZM34.6436 14.8693C34.6436 16 33.7234 16.9212 32.5916 16.9212C31.461 16.9212 30.5397 16 30.5397 14.8693C30.5397 13.7375 31.461 12.8174 32.5916 12.8174C33.7234 12.8174 34.6436 13.7375 34.6436 14.8693Z" fill="#01BC68"/>
<path d="M42.5526 14.8693C42.5526 18.4215 45.4422 21.3112 48.9944 21.3112C52.5467 21.3112 55.4363 18.4215 55.4363 14.8693C55.4363 11.317 52.5467 8.42627 48.9944 8.42627C45.4422 8.42627 42.5526 11.317 42.5526 14.8693ZM51.0464 14.8693C51.0464 16 50.1263 16.9212 48.9944 16.9212C47.8638 16.9212 46.9425 16 46.9425 14.8693C46.9425 13.7375 47.8638 12.8174 48.9944 12.8174C50.1263 12.8174 51.0464 13.7375 51.0464 14.8693Z" fill="#01BC68"/>
<path d="M122.009 144.351H129.337C130.548 144.351 131.532 143.368 131.532 142.156C131.532 140.943 130.548 139.96 129.337 139.96H122.009C120.796 139.96 119.813 140.943 119.813 142.156C119.813 143.368 120.796 144.351 122.009 144.351Z" fill="#01BC68"/>
<path d="M121.37 68.5112H118.843C117.632 68.5112 116.648 69.4931 116.648 70.7062C116.648 71.9193 117.632 72.9012 118.843 72.9012H121.37C122.583 72.9012 123.566 71.9193 123.566 70.7062C123.566 69.4931 122.583 68.5112 121.37 68.5112Z" fill="#01BC68"/>
<path d="M132.501 68.5112H127.535C126.323 68.5112 125.34 69.4931 125.34 70.7062C125.34 71.9193 126.323 72.9012 127.535 72.9012H132.501C133.713 72.9012 134.696 71.9193 134.696 70.7062C134.696 69.4931 133.713 68.5112 132.501 68.5112Z" fill="#01BC68"/>
<path d="M149.833 9.66225C149.833 4.33502 145.499 0 140.172 0H121.442C120.229 0 119.247 0.983048 119.247 2.19498C119.247 3.40805 120.229 4.3911 121.442 4.3911H140.172C143.079 4.3911 145.443 6.75545 145.443 9.66225V25.4711H4.3911V9.66225C4.3911 6.75545 6.75545 4.3911 9.66225 4.3911H121.442C122.655 4.3911 119.247 3.40805 119.247 2.19498C119.247 0.983048 122.655 0 121.442 0L9.66225 0C4.33388 0 0 4.33502 0 9.66225V115.883C0 121.21 4.33388 125.545 9.66225 125.545H52.3785V133.418H45.75C41.328 133.418 37.7312 137.016 37.7312 141.436V146.179C37.7312 148.196 39.3723 149.839 41.3898 149.839L143.134 149.973C146.92 149.973 150 146.892 150 143.106V136.161L149.833 9.66225ZM9.66225 121.154C6.75545 121.154 4.3911 118.79 4.3911 115.883V107.556H101.344V121.154H9.66225ZM97.4545 125.545H101.344V133.418H97.4545V125.545ZM93.0645 125.545V133.418H56.7684V125.545H93.0645ZM42.1211 145.448V141.436C42.1211 139.437 43.7496 137.809 45.75 137.809H101.344V143.106C101.344 143.928 101.49 144.716 101.756 145.448H42.1211ZM145.609 143.106C145.609 144.471 144.499 145.581 143.134 145.581H108.211C106.845 145.581 105.735 144.471 105.735 143.106V138.356H145.609V143.106ZM145.609 133.965H105.735V95.6703C105.735 94.4584 104.752 93.4753 103.54 93.4753C102.327 93.4753 101.344 94.4584 101.344 95.6703V103.165H4.3911V29.8622H145.443V63.4563C144.721 63.1977 143.944 63.0558 143.134 63.0558H108.211C104.425 63.0558 101.344 66.1366 101.344 69.9223V94.5C101.344 95.7131 102.327 93.4753 103.54 93.4753C104.752 93.4753 105.735 96.8834 105.735 95.6703V79.0638H145.609V133.965ZM145.609 74.6738H105.735V69.9223C105.735 68.5581 106.845 67.4469 108.211 67.4469H143.134C144.499 67.4469 145.61 68.5581 145.61 69.9223V74.6738H145.609Z" fill="#01BC68"/>
<path d="M110.164 89.8784H118.258C119.469 89.8784 120.453 88.8954 120.453 87.6834C120.453 86.4704 119.469 85.4873 118.258 85.4873H110.164C108.951 85.4873 107.969 86.4704 107.969 87.6834C107.969 88.8954 108.951 89.8784 110.164 89.8784Z" fill="#01BC68"/>
<path d="M124.546 89.8784H127.999C129.211 89.8784 130.194 88.8954 130.194 87.6834C130.194 86.4704 129.211 85.4873 127.999 85.4873H124.546C123.334 85.4873 122.351 86.4704 122.351 87.6834C122.351 88.8954 123.334 89.8784 124.546 89.8784Z" fill="#01BC68"/>
<path d="M133.77 89.8784H141.18C142.393 89.8784 143.376 88.8954 143.376 87.6834C143.376 86.4704 142.393 85.4873 141.18 85.4873H133.77C132.558 85.4873 131.575 86.4704 131.575 87.6834C131.575 88.8954 132.558 89.8784 133.77 89.8784Z" fill="#01BC68"/>
<path d="M110.164 99.7502H113.766C114.979 99.7502 115.962 98.7672 115.962 97.5541C115.962 96.3422 114.979 95.3591 113.766 95.3591H110.164C108.951 95.3591 107.969 96.3422 107.969 97.5541C107.969 98.7672 108.951 99.7502 110.164 99.7502Z" fill="#01BC68"/>
<path d="M132.326 97.5541C132.326 96.3422 131.344 95.3591 130.131 95.3591H119.823C118.611 95.3591 117.628 96.3422 117.628 97.5541C117.628 98.7672 118.611 99.7502 119.823 99.7502H130.131C131.344 99.7502 132.326 98.7672 132.326 97.5541Z" fill="#01BC68"/>
<path d="M141.18 95.3591H137.109C135.897 95.3591 134.914 96.3422 134.914 97.5541C134.914 98.7672 135.897 99.7502 137.109 99.7502H141.18C142.393 99.7502 143.376 98.7672 143.376 97.5541C143.376 96.3422 142.393 95.3591 141.18 95.3591Z" fill="#01BC68"/>
<path d="M110.164 108.832H117.368C118.58 108.832 119.563 107.849 119.563 106.637C119.563 105.424 118.58 104.441 117.368 104.441H110.164C108.951 104.441 107.969 105.424 107.969 106.637C107.969 107.849 108.951 108.832 110.164 108.832Z" fill="#01BC68"/>
<path d="M123.38 108.832H132.501C133.713 108.832 134.696 107.849 134.696 106.637C134.696 105.424 133.713 104.441 132.501 104.441H123.38C122.167 104.441 121.184 105.424 121.184 106.637C121.184 107.849 122.167 108.832 123.38 108.832Z" fill="#01BC68"/>
<path d="M141.18 104.441H138.379C137.167 104.441 136.184 105.424 136.184 106.637C136.184 107.849 137.167 108.832 138.379 108.832H141.18C142.393 108.832 143.376 107.849 143.376 106.637C143.376 105.424 142.393 104.441 141.18 104.441Z" fill="#01BC68"/>
<path d="M110.164 118.704H121.184C122.397 118.704 123.38 117.721 123.38 116.508C123.38 115.296 122.397 114.313 121.184 114.313H110.164C108.951 114.313 107.969 115.296 107.969 116.508C107.969 117.721 108.951 118.704 110.164 118.704Z" fill="#01BC68"/>
<path d="M130.399 114.313H127.413C126.201 114.313 125.218 115.296 125.218 116.508C125.218 117.721 126.201 118.704 127.413 118.704H130.399C131.611 118.704 132.594 117.721 132.594 116.508C132.594 115.296 131.611 114.313 130.399 114.313Z" fill="#01BC68"/>
<path d="M141.18 114.313H135.978C134.766 114.313 133.783 115.296 133.783 116.508C133.783 117.721 134.766 118.704 135.978 118.704H141.18C142.393 118.704 143.376 117.721 143.376 116.508C143.376 115.296 142.393 114.313 141.18 114.313Z" fill="#01BC68"/>
</g>
<defs>
<clipPath id="clip0">
<rect width="150" height="150" fill="white"/>
</clipPath>
</defs>
</svg>
