<svg width="150" height="150" viewBox="0 0 150 150" fill="none" xmlns="http://www.w3.org/2000/svg">
<path d="M79.9751 98.7427H119.963C121.462 98.7427 122.462 97.7431 122.462 96.2436V73.7506C122.462 72.2511 121.462 71.2515 119.963 71.2515H79.9751C78.4756 71.2515 77.476 72.2511 77.476 73.7506V96.2436C77.4757 97.7428 78.4756 98.7427 79.9751 98.7427ZM82.4742 76.2497H117.463V93.7441H82.4742V76.2497Z" fill="#01BC68"/>
<path d="M12.4962 66.2526H32.49C33.9896 66.2526 34.9892 65.253 34.9892 63.7535C34.9892 62.254 33.9896 61.2544 32.49 61.2544H12.4962C10.9967 61.2544 9.99707 62.254 9.99707 63.7535C9.99707 65.253 10.9967 66.2526 12.4962 66.2526Z" fill="#01BC68"/>
<path d="M42.4868 66.2526H62.4807C63.9802 66.2526 64.9798 65.253 64.9798 63.7535C64.9798 62.254 63.9802 61.2544 62.4807 61.2544H42.4868C40.9873 61.2544 39.9877 62.254 39.9877 63.7535C39.9877 65.253 40.9873 66.2526 42.4868 66.2526Z" fill="#01BC68"/>
<path d="M12.4962 76.2497H44.9859C46.4855 76.2497 47.4851 75.2501 47.4851 73.7506C47.4851 72.2511 46.4855 71.2515 44.9859 71.2515H12.4962C10.9967 71.2515 9.99707 72.2511 9.99707 73.7506C9.99707 75.2501 10.9967 76.2497 12.4962 76.2497Z" fill="#01BC68"/>
<path d="M62.4804 71.2512H54.9827C53.4832 71.2512 52.4836 72.2508 52.4836 73.7503C52.4836 75.2499 53.4832 76.2495 54.9827 76.2495H62.4804C63.9799 76.2495 64.9795 75.2499 64.9795 73.7503C64.9795 72.2508 63.9799 71.2512 62.4804 71.2512Z" fill="#01BC68"/>
<path d="M147.704 40.2609C145.954 38.0116 143.705 36.7619 140.956 36.5121L134.958 35.7852V28.7643V23.7661C134.958 18.2679 130.459 13.7693 124.961 13.7693H9.99678C4.49859 13.769 0 18.2676 0 23.7661V28.7646V48.7585V103.741C0 108.255 3.03333 112.093 7.16173 113.324C7.03579 118.379 10.8611 122.768 15.9952 123.235L131.459 136.231C131.709 136.231 132.209 136.231 132.459 136.231C137.457 136.231 141.956 132.482 142.455 127.734L149.953 47.5087C150.203 45.0093 149.453 42.2601 147.704 40.2609ZM4.99854 31.2637H129.96V37.7618V46.259H4.99854V31.2637ZM9.99678 18.7675H124.961C127.71 18.7675 129.959 21.0168 129.959 23.7661V26.2652H4.99854V23.7661C4.99854 21.0168 7.24783 18.7675 9.99678 18.7675ZM4.99854 103.741V51.2573H129.96V103.741C129.96 106.49 127.71 108.739 124.961 108.739H10.2469H9.99707C7.24783 108.739 4.99854 106.49 4.99854 103.741ZM144.955 46.5089L137.457 126.734C137.207 129.483 134.708 131.482 131.959 131.232L16.7447 118.237C14.2456 117.987 12.4959 115.987 12.2461 113.738H124.961C130.459 113.738 134.958 109.239 134.958 103.741V48.7582V40.5107L140.706 41.0107C141.956 41.0107 143.205 41.7604 143.955 42.76C144.705 43.7596 145.205 45.2592 144.955 46.5089Z" fill="#01BC68"/>
</svg>
