<svg width="45" height="45" viewBox="0 0 45 45" fill="none" xmlns="http://www.w3.org/2000/svg">
<g clip-path="url(#clip0)">
<path d="M42.0078 23.0828C41.8267 22.7123 41.8267 22.2874 42.0078 21.9171L43.6861 18.4837C44.6206 16.572 43.8802 14.2934 42.0006 13.2961L38.6247 11.5049C38.2605 11.3117 38.0108 10.9679 37.9395 10.5619L37.2793 6.79769C36.9116 4.70187 34.9729 3.29351 32.8665 3.59155L29.0826 4.1268C28.6741 4.18446 28.2703 4.05315 27.974 3.76654L25.2273 1.10945C23.698 -0.370097 21.3021 -0.370185 19.7728 1.10945L17.0261 3.7668C16.7297 4.0535 16.3258 4.18454 15.9175 4.12706L12.1336 3.59181C10.0264 3.2936 8.08842 4.70213 7.72077 6.79796L7.06054 10.562C6.98926 10.9681 6.73957 11.3118 6.37544 11.5051L2.99958 13.2963C1.11996 14.2935 0.379575 16.5722 1.31402 18.4839L2.99228 21.9173C3.17334 22.2877 3.17334 22.7126 2.99228 23.0829L1.31393 26.5163C0.379487 28.428 1.11987 30.7065 2.99949 31.7038L6.37535 33.495C6.73957 33.6882 6.98926 34.032 7.06054 34.438L7.72077 38.2022C8.05546 40.1102 9.69145 41.4482 11.5717 41.448C11.7569 41.448 11.9448 41.435 12.1336 41.4083L15.9176 40.873C16.3257 40.8151 16.7298 40.9467 17.0261 41.2333L19.7728 43.8904C20.5376 44.6303 21.5186 45.0001 22.5 45C23.4811 44.9999 24.4628 44.6301 25.2273 43.8904L27.974 41.2333C28.2704 40.9467 28.6743 40.8157 29.0826 40.873L32.8665 41.4083C34.9739 41.7064 36.9116 40.298 37.2793 38.2021L37.9396 34.4381C38.0109 34.032 38.2606 33.6883 38.6247 33.495L42.0006 31.7038C43.8802 30.7066 44.6206 28.4279 43.6861 26.5162L42.0078 23.0828ZM40.7841 29.411L37.4082 31.2022C36.3319 31.7734 35.5937 32.7893 35.3832 33.9895L34.723 37.7536C34.5986 38.4627 33.9431 38.939 33.23 38.8384L29.4461 38.3031C28.2393 38.1322 27.0453 38.5206 26.1694 39.3677L23.4227 42.0248C22.9054 42.5252 22.0948 42.5252 21.5773 42.0248L18.8306 39.3677C18.0904 38.6516 17.1227 38.2636 16.1125 38.2636C15.9274 38.2636 15.7408 38.2766 15.554 38.303L11.77 38.8383C11.0576 38.939 10.4015 38.4627 10.2771 37.7536L9.61674 33.9893C9.40615 32.7891 8.66805 31.7732 7.59166 31.2021L4.2158 29.4109C3.57983 29.0735 3.32934 28.3026 3.64548 27.6559L5.32383 24.2224C5.85891 23.1277 5.85891 21.8721 5.32383 20.7773L3.64548 17.3439C3.32934 16.6971 3.57983 15.9262 4.2158 15.5888L7.59166 13.7976C8.66796 13.2264 9.40615 12.2106 9.61665 11.0104L10.2769 7.2462C10.4013 6.5371 11.0568 6.06074 11.7699 6.16146L15.5538 6.69671C16.7601 6.86748 17.9546 6.47927 18.8304 5.63209L21.5772 2.975C22.0945 2.47455 22.9051 2.47455 23.4226 2.975L26.1693 5.63209C27.0451 6.47936 28.2394 6.86748 29.4459 6.69671L33.2298 6.16146C33.9424 6.06065 34.5984 6.5371 34.7228 7.2462L35.383 11.0104C35.5936 12.2107 36.3317 13.2266 37.4081 13.7976L40.784 15.5888C41.42 15.9262 41.6704 16.6971 41.3543 17.3439L39.6759 20.7772C39.1409 21.8719 39.1409 23.1277 39.6759 24.2223L41.3543 27.6557C41.6705 28.3026 41.42 29.0736 40.7841 29.411Z" fill="#01BC68"/>
<path d="M31.982 13.0179C31.4753 12.5111 30.6535 12.5111 30.1468 13.0179L13.0179 30.1468C12.5112 30.6536 12.5112 31.4753 13.0179 31.982C13.2713 32.2354 13.6035 32.3622 13.9355 32.3622C14.2676 32.3622 14.5998 32.2355 14.8531 31.982L31.9819 14.8532C32.4889 14.3464 32.4889 13.5248 31.982 13.0179Z" fill="#01BC68"/>
<path d="M17.3092 10.8207C14.6855 10.8207 12.5509 12.9553 12.5509 15.579C12.5509 18.2027 14.6855 20.3372 17.3092 20.3372C19.9329 20.3372 22.0674 18.2027 22.0674 15.579C22.0674 12.9553 19.9329 10.8207 17.3092 10.8207ZM17.3092 17.7418C16.1166 17.7418 15.1464 16.7715 15.1464 15.5789C15.1464 14.3863 16.1166 13.4161 17.3092 13.4161C18.5017 13.4161 19.472 14.3863 19.472 15.5789C19.472 16.7715 18.5017 17.7418 17.3092 17.7418Z" fill="#01BC68"/>
<path d="M27.6907 24.6628C25.0671 24.6628 22.9325 26.7974 22.9325 29.4211C22.9325 32.0448 25.0671 34.1794 27.6907 34.1794C30.3144 34.1794 32.449 32.0448 32.449 29.4211C32.449 26.7974 30.3144 24.6628 27.6907 24.6628ZM27.6907 31.5839C26.4982 31.5839 25.5279 30.6137 25.5279 29.4211C25.5279 28.2285 26.4981 27.2583 27.6907 27.2583C28.8833 27.2583 29.8535 28.2285 29.8535 29.4211C29.8535 30.6137 28.8833 31.5839 27.6907 31.5839Z" fill="#01BC68"/>
</g>
<defs>
<clipPath id="clip0">
<rect width="45" height="45" fill="white"/>
</clipPath>
</defs>
</svg>
