<svg width="45" height="45" viewBox="0 0 45 45" fill="none" xmlns="http://www.w3.org/2000/svg">
<path d="M44.2681 21.4082C43.8003 20.8507 43.1621 20.4883 42.4305 20.3529L42.0869 15.6889C42.4259 15.6856 42.7149 15.4414 42.774 15.1068L42.9065 14.3553C43.0486 13.5497 42.8505 12.7544 42.3629 12.1736C41.876 11.5933 41.1631 11.2737 40.3555 11.2737H35.1828L35.4346 9.84588C35.5061 9.44036 35.4025 9.03544 35.1506 8.73521C34.9012 8.43796 34.5262 8.26746 34.1217 8.26746H8.65934C7.90638 8.26746 7.21327 8.85325 7.08135 9.60128L4.82862 22.3777C4.76112 22.7609 5.01697 23.1263 5.40018 23.1938C5.44148 23.2011 5.48262 23.2046 5.52331 23.2046C5.85879 23.2046 6.15612 22.9641 6.21633 22.6223L8.46914 9.84588C8.48399 9.76177 8.59228 9.67652 8.65925 9.67652L34.0334 9.67661L31.7939 22.3777C31.7263 22.7609 31.9822 23.1263 32.3655 23.1938C32.7482 23.2612 33.1141 23.0055 33.1816 22.6223L33.344 21.7013H41.7698C41.77 21.7013 41.7704 21.7013 41.7707 21.7013C41.7711 21.7013 41.7714 21.7013 41.7717 21.7013C42.3541 21.7014 42.8572 21.9189 43.1887 22.3138C43.4167 22.5856 43.5498 22.924 43.5818 23.2983H41.2414C40.8994 23.2983 40.6069 23.5438 40.5475 23.8806L40.2825 25.3837C40.1757 25.9893 40.3265 26.5893 40.6962 27.0299C41.0607 27.4645 41.6142 27.7137 42.2144 27.7137H42.8778L42.3311 30.8139H40.4709C40.3485 30.1938 40.0805 29.6235 39.6744 29.1396C38.9537 28.2807 37.8932 27.8077 36.6885 27.8077C34.7568 27.8077 32.8931 29.0716 32.0206 30.8139H31.7373L32.6516 25.6285C32.7191 25.2453 32.4634 24.8798 32.0801 24.8123C31.6971 24.7447 31.3314 25.0006 31.2639 25.3839L30.3064 30.814H17.2633C17.1409 30.194 16.8729 29.6237 16.4667 29.1398C15.746 28.2809 14.6856 27.8079 13.4808 27.8079C11.5491 27.8079 9.68537 29.0718 8.81288 30.8141L4.77185 30.814L5.05345 29.2171H8.22006C8.60915 29.2171 8.92468 28.9016 8.92468 28.5124C8.92468 28.1234 8.60924 27.8078 8.22006 27.8078H0.704619C0.315527 27.8078 0 28.1233 0 28.5124C0 28.9015 0.315439 29.2171 0.704619 29.2171H3.62268L3.37087 30.6448C3.29941 31.0504 3.40295 31.4553 3.65484 31.7555C3.90428 32.0528 4.27931 32.2233 4.68378 32.2233H8.35532C8.16434 33.4185 8.45139 34.5445 9.16989 35.4006C9.8906 36.2596 10.951 36.7325 12.1558 36.7325C14.5538 36.7325 16.848 34.7856 17.27 32.3925C17.2799 32.3358 17.2877 32.2794 17.2956 32.2232H31.563C31.3719 33.4183 31.659 34.5443 32.3776 35.4005C33.0983 36.2595 34.1587 36.7324 35.3635 36.7324C37.7615 36.7324 40.0557 34.7855 40.4777 32.3924C40.4876 32.3357 40.4954 32.2793 40.5033 32.2231H42.9225C43.2645 32.2231 43.557 31.9776 43.6164 31.6408L44.9416 24.1253C45.1215 23.1052 44.8823 22.1402 44.2681 21.4082ZM33.5927 20.2924L34.4043 15.6891H40.6741L41.0133 20.2924H33.5927ZM41.5187 14.1107L41.4889 14.28H34.6527L34.9343 12.6829H40.3555C40.7393 12.6829 41.0689 12.8237 41.2834 13.0794C41.5057 13.3443 41.5894 13.7104 41.5187 14.1107ZM15.8823 32.148C15.5736 33.899 13.9018 35.3234 12.1558 35.3234C11.3748 35.3234 10.6977 35.0292 10.2494 34.495C9.78812 33.9452 9.61233 33.1987 9.75445 32.3927C10.0632 30.6417 11.7349 29.2172 13.4809 29.2172C14.2619 29.2172 14.939 29.5115 15.3874 30.0458C15.8486 30.5954 16.0244 31.342 15.8823 32.148ZM39.0899 32.148C38.7811 33.899 37.1094 35.3234 35.3634 35.3234C34.5824 35.3234 33.9053 35.0292 33.457 34.4949C32.9957 33.9451 32.8199 33.1986 32.9621 32.3926C33.2707 30.6416 34.9425 29.2172 36.6885 29.2172C37.4694 29.2172 38.1466 29.5114 38.595 30.0457C39.0562 30.5954 39.232 31.342 39.0899 32.148ZM43.1263 26.3049H42.2144V26.3048C42.0264 26.3048 41.8747 26.2424 41.7756 26.1245C41.6729 26.0019 41.6354 25.8259 41.6702 25.6288L41.8326 24.7079H43.4079L43.1263 26.3049Z" fill="#01BC68"/>
<path d="M13.9799 31.282C13.7305 30.9847 13.3554 30.8142 12.9509 30.8142C12.1979 30.8142 11.5048 31.4 11.3729 32.148C11.3014 32.5536 11.405 32.9585 11.6569 33.2587C11.9063 33.556 12.2813 33.7265 12.6858 33.7265C13.4388 33.7265 14.1319 33.1406 14.2638 32.3927C14.3353 31.9871 14.2319 31.5823 13.9799 31.282Z" fill="#01BC68"/>
<path d="M37.1875 31.282C36.938 30.9847 36.563 30.8142 36.1586 30.8142C35.4056 30.8142 34.7125 31.4 34.5807 32.148C34.5092 32.5536 34.6126 32.9584 34.8646 33.2587C35.114 33.556 35.489 33.7265 35.8935 33.7265C36.6465 33.7265 37.3396 33.1406 37.4715 32.3927C37.543 31.9871 37.4395 31.5823 37.1875 31.282Z" fill="#01BC68"/>
<path d="M28.4216 27.8079H19.4934C19.1043 27.8079 18.7888 28.1233 18.7888 28.5125C18.7888 28.9016 19.1042 29.2171 19.4934 29.2171H28.4216C28.8106 29.2171 29.1262 28.9017 29.1262 28.5125C29.1261 28.1233 28.8106 27.8079 28.4216 27.8079Z" fill="#01BC68"/>
<path d="M15.7356 24.8018H2.73779C2.3487 24.8018 2.03317 25.1172 2.03317 25.5064C2.03317 25.8955 2.34852 26.211 2.73779 26.211H15.7356C16.1247 26.211 16.4402 25.8956 16.4402 25.5064C16.4402 25.1172 16.1248 24.8018 15.7356 24.8018Z" fill="#01BC68"/>
</svg>
