<svg height="512pt" viewBox="0 -26 512.00215 512" width="512pt" xmlns="http://www.w3.org/2000/svg"><path d="m491.210938 187.3125h-271.050782l103.878906-120.222656h.003907c7.492187-8.675782 6.53125-21.832032-2.140625-29.324219l-37.429688-32.34375c-4.203125-3.628906-9.558594-5.40625-15.105468-5.003906-5.539063.40625-10.589844 2.941406-14.222657 7.144531l-28.0625 32.480469c-2.203125-10.4375-7.695312-20.257813-16.367187-27.753907-12.523438-10.820312-29.566406-14.820312-45.589844-10.695312-16.074219 4.136719-29.109375 15.914062-34.878906 31.5-13.066406 35.320312-18.335938 72.339844-20.078125 87.617188-14.863281 3.941406-50.726563 14.527343-83.777344 32.582031-14.585937 7.96875-24.34375 22.574219-26.105469 39.078125-1.757812 16.453125 4.675782 32.734375 17.195313 43.558594 8.675781 7.492187 19.195312 11.496093 29.839843 12.160156l-34.703124 40.164062c-7.496094 8.675782-6.535157 21.832032 2.140624 29.324219l37.425782 32.34375c3.8125 3.292969 8.578125 5.058594 13.5625 5.058594.515625 0 1.03125-.019531 1.546875-.054688 5.539062-.40625 10.589843-2.941406 14.21875-7.144531l54.1875-62.710938v154.285157c0 11.464843 9.328125 20.789062 20.789062 20.789062h334.722657c11.464843 0 20.792968-9.324219 20.792968-20.789062v-231.25c-.003906-11.464844-9.328125-20.792969-20.792968-20.792969zm-342.203126-147.28125c3.542969-9.578125 11.234376-16.527344 21.101563-19.066406 9.820313-2.527344 19.855469-.175782 27.527344 6.457031 12.738281 11.003906 14.148437 30.316406 3.148437 43.054687l-30.765625 35.605469 13.835938-41.839843c1.734375-5.246094-1.113281-10.902344-6.355469-12.636719-5.242188-1.730469-10.902344 1.113281-12.632812 6.355469l-24.894532 75.285156-10.09375-8.71875c1.457032-13.148438 6.425782-50.164063 19.128906-84.496094zm-118.449218 180.761719c-7.675782-6.632813-11.460938-16.21875-10.386719-26.300781 1.082031-10.132813 6.84375-18.753907 15.804687-23.648438 32.058594-17.511719 68.019532-27.824219 80.828126-31.183594l10.09375 8.71875-70.878907 35.558594c-4.9375 2.476562-6.929687 8.484375-4.453125 13.421875 1.753906 3.496094 5.28125 5.515625 8.945313 5.515625 1.507812 0 3.035156-.339844 4.476562-1.0625l39.390625-19.757812-30.765625 35.605468c-11.007812 12.730469-30.320312 14.136719-43.054687 3.132813zm35.820312 113.910156c-.285156.332031-.785156.367187-1.117187.082031l-37.429688-32.339844c-.328125-.285156-.367187-.785156-.082031-1.117187l61-70.597656 15.753906-18.230469 47.753906-55.265625c.023438-.03125.046876-.058594.070313-.085937l.007813-.007813c.023437-.027344.046874-.054687.066406-.078125l117.878906-136.425781c.050781-.0625.210938-.246094.539062-.273438h.0625c.289063 0 .457032.144531.511719.191407l37.429688 32.339843c.332031.285157.367187.789063.082031 1.117188zm235.285156 105.441406v-20.480469c0-5.523437-4.480468-10-10-10-5.523437 0-10 4.476563-10 10v20.480469h-125.175781c-.4375 0-.789062-.355469-.789062-.789062v-177.429688l47.183593-54.613281h78.78125v136.40625c0 5.519531 4.476563 10 10 10 5.519532 0 10-4.480469 10-10v-136.40625h50.585938v232.832031zm190.335938-.789062c0 .433593-.355469.789062-.789062.789062h-118.960938v-232.832031h118.960938c.433593 0 .789062.355469.789062.789062zm0 0"/><path d="m297.207031 373.234375c-3.621093-2.414063-8.519531-2.171875-11.890625.582031-3.097656 2.53125-4.378906 6.8125-3.21875 10.628906 1.234375 4.054688 4.996094 6.960938 9.234375 7.09375 4.171875.132813 8.09375-2.429687 9.625-6.316406 1.695313-4.304687.144531-9.441406-3.75-11.988281zm0 0"/></svg>