<svg width="45" height="45" viewBox="0 0 45 45" fill="none" xmlns="http://www.w3.org/2000/svg">
<g clip-path="url(#clip0)">
<path d="M43.1727 18.7483H19.3499L28.4799 8.18185C29.1384 7.41934 29.0543 6.26303 28.2921 5.60454L25.0024 2.76184C24.633 2.44289 24.1623 2.28668 23.6748 2.32204C23.1879 2.35775 22.744 2.58056 22.4247 2.94998L19.9583 5.80469C19.7647 4.88734 19.282 4.02423 18.5198 3.3654C17.4191 2.4144 15.9212 2.06284 14.5129 2.42538C13.1001 2.78896 11.9545 3.82407 11.4474 5.19393C10.299 8.29824 9.83582 11.5519 9.6827 12.8946C8.37636 13.241 5.22433 14.1714 2.31948 15.7583C1.03752 16.4586 0.179906 17.7423 0.0250679 19.1929C-0.129427 20.6389 0.436024 22.0699 1.53637 23.0212C2.29889 23.6797 3.22345 24.0316 4.159 24.09L1.10893 27.62C0.4501 28.3825 0.534557 29.5388 1.29707 30.1973L4.58644 33.04C4.92152 33.3295 5.34037 33.4846 5.77845 33.4846C5.82377 33.4846 5.86908 33.4829 5.9144 33.4798C6.40123 33.4441 6.84515 33.2213 7.16409 32.8519L11.9266 27.3402V40.9004C11.9266 41.908 12.7465 42.7275 13.7538 42.7275H43.1727C44.1803 42.7275 45.0002 41.908 45.0002 40.9004V20.5758C44.9998 19.5681 44.1803 18.7483 43.1727 18.7483ZM13.0963 5.80366C13.4077 4.96184 14.0837 4.35107 14.951 4.12791C15.8141 3.90578 16.6961 4.11246 17.3704 4.69542C18.4899 5.66256 18.6139 7.35994 17.6471 8.47951L14.9431 11.6089L16.1591 7.93157C16.3115 7.47049 16.0613 6.97336 15.6005 6.82093C15.1398 6.66883 14.6423 6.91877 14.4902 7.37951L12.3022 13.9963L11.4151 13.23C11.5432 12.0744 11.9799 8.82112 13.0963 5.80366ZM2.68581 21.6909C2.01118 21.1079 1.6785 20.2654 1.77292 19.3793C1.86802 18.4887 2.37442 17.731 3.162 17.3008C5.97963 15.7617 9.14025 14.8553 10.266 14.5601L11.1531 15.3264L4.92358 18.4516C4.48962 18.6693 4.31453 19.1973 4.53219 19.6313C4.68634 19.9385 4.99636 20.116 5.3184 20.116C5.45092 20.116 5.58516 20.0862 5.71184 20.0227L9.1739 18.2861L6.4699 21.4155C5.50242 22.5344 3.80504 22.658 2.68581 21.6909ZM5.83407 31.7025C5.809 31.7316 5.76506 31.7347 5.73588 31.7097L2.44617 28.8673C2.41733 28.8422 2.4139 28.7983 2.43896 28.7691L7.80027 22.5643L9.18488 20.962L13.382 16.1047C13.384 16.1019 13.3861 16.0995 13.3882 16.0971C13.3902 16.0947 13.393 16.0916 13.3947 16.0896L23.7551 4.09907C23.7596 4.09358 23.7736 4.07745 23.8025 4.07504H23.808C23.8334 4.07504 23.8481 4.08774 23.8529 4.09186L27.1427 6.93422C27.1718 6.95928 27.1749 7.00357 27.1499 7.03241L5.83407 31.7025ZM26.5133 40.9697V35.8438C26.5133 35.3583 26.1196 35.8438 25.6344 35.8438C25.149 35.8438 24.7555 35.3583 24.7555 35.8438V40.9697H13.7538C13.7154 40.9697 13.6845 40.9385 13.6845 40.9004V25.306L17.8314 20.5061H24.7555V35.8438C24.7555 36.3289 25.149 35.5 25.6344 35.5C26.1196 35.5 26.5133 36.3289 26.5133 35.8438V20.5061H30.9594V40.9697H26.5133ZM43.242 40.9004C43.242 40.9385 43.2108 40.9697 43.1727 40.9697H32.7172V20.5061H43.1727C43.2108 20.5061 43.242 20.5373 43.242 20.5754V40.9004Z" fill="#01BC68"/>
<path d="M26.1216 35.089C25.8034 34.8768 25.3728 34.8981 25.0765 35.1401C24.8043 35.3626 24.6917 35.7389 24.7936 36.0743C24.9021 36.4307 25.2328 36.6861 25.6053 36.6978C25.9719 36.7094 26.3166 36.4842 26.4512 36.1426C26.6002 35.7643 26.4639 35.3128 26.1216 35.089Z" fill="#01BC68"/>
</g>
<defs>
<clipPath id="clip0">
<rect width="45" height="45" fill="white"/>
</clipPath>
</defs>
</svg>
