<svg width="45" height="45" viewBox="0 0 45 45" fill="none" xmlns="http://www.w3.org/2000/svg">
<path d="M25.2512 11.2214C27.104 11.6665 29.5536 11.9118 32.1486 11.9118C34.7437 11.9118 37.1931 11.6666 39.046 11.2214C39.7064 11.0626 40.2701 10.8838 40.7385 10.6838V12.4176C40.5789 12.5891 39.9006 13.0075 38.1655 13.3687C36.504 13.7148 34.3672 13.9053 32.1487 13.9053C29.2516 13.9053 26.5082 13.5768 24.8103 13.0267C24.3508 12.8778 23.8569 13.1296 23.7079 13.5896C23.5588 14.0496 23.8108 14.543 24.2708 14.692C26.1612 15.3046 29.0326 15.656 32.1488 15.656C34.7438 15.656 37.1932 15.4108 39.0461 14.9655C39.2776 14.9098 39.4972 14.8517 39.705 14.7911L38.1655 23.5732C38.0864 24.05 38.0786 23.6134 38.5554 23.6924C38.6038 23.7004 38.6723 23.7558 38.7198 23.7558C39 24 39.4289 24.4285 39.5 24L41.6187 13.9513C42.2017 13.5406 42.4891 13.0608 42.4891 12.5062V8.76209C42.4891 7.66403 41.3628 6.85952 39.046 6.30283C37.1932 5.85763 34.7437 5.61232 32.1486 5.61232C29.5536 5.61232 27.104 5.85752 25.2512 6.30283C22.9343 6.85952 21.808 7.66392 21.808 8.76209C21.808 9.86027 22.9343 10.6646 25.2512 11.2214ZM26.1316 7.89948C27.7932 7.55352 29.9301 7.36303 32.1486 7.36303C34.3672 7.36303 36.5041 7.55352 38.1656 7.89948C39.6505 8.20868 40.3612 8.55968 40.6354 8.76209C40.3612 8.96451 39.6504 9.31539 38.1655 9.62459C36.5039 9.97056 34.3671 10.161 32.1486 10.161C29.9302 10.161 27.7931 9.97056 26.1316 9.62459C24.6467 9.31539 23.9359 8.9644 23.6617 8.76209C23.9358 8.55968 24.6466 8.20868 26.1316 7.89948ZM38.7198 23.7558C38.6558 23.7317 38.6017 23.7105 38.5554 23.6924C38.2571 23.5758 37.6361 23.3328 37.1333 24.0307C37.0982 24.0796 37.065 24.1258 37.0028 24.1922C36.5981 24.6229 35.3303 25.0588 33.6906 25.0588C31.6065 25.0588 30.4443 24.3913 30.315 24.1132C30.3425 24.0635 30.443 23.9422 30.6852 23.7987C31.0154 23.6032 31.1798 23.2153 31.0904 22.8421C31.0012 22.4688 30.6792 22.1972 30.2963 22.1721C29.3013 22.1072 28.2768 22.0741 27.2512 22.0741C19.5818 22.0741 11.818 23.9387 11.818 27.5026V39.5714C11.818 43.1353 19.5818 45 27.2512 45C34.9206 45 42.6845 43.1353 42.6845 39.5714V27.5026C42.6845 25.5444 40.2006 24.3147 38.7198 23.7558ZM40.9339 39.5714C40.9339 40.1446 39.9781 41.1131 37.284 41.9557C34.6166 42.79 31.0537 43.2494 27.2513 43.2494C23.449 43.2494 19.886 42.79 17.2187 41.9557C14.5246 41.1131 13.5688 40.1446 13.5688 39.5714V30.1595C16.2911 31.9873 21.7953 32.9312 27.2514 32.9312C32.7076 32.9312 38.2118 31.9873 40.9341 30.1594L40.9339 39.5714ZM17.525 29.9799C17.9203 29.7189 18.8519 29.373 20.2492 29.373C21.9252 29.373 22.9311 29.8705 23.1456 30.1226C23.0014 30.2861 22.4603 30.6276 21.3917 30.7904C19.9814 30.5913 18.6758 30.319 17.525 29.9799ZM39.8591 28.7704C39.8305 28.3128 39.4504 27.9507 38.9856 27.9507H38.7654C38.2821 27.9507 37.8901 28.3426 37.8901 28.826C37.8901 29.1243 38.0393 29.3877 38.2672 29.5457C37.9688 29.6609 37.6417 29.775 37.2839 29.8868C34.6166 30.7211 31.0536 31.1805 27.2512 31.1805C26.3503 31.1805 25.4626 31.1548 24.5974 31.1043C24.8095 30.8076 24.9221 30.4777 24.9221 30.1237C24.9221 28.4815 22.5715 27.6224 20.2493 27.6224C18.3218 27.6224 16.3746 28.2145 15.7685 29.3549C14.1714 28.6622 13.5687 27.9578 13.5687 27.5026C13.5687 27.0866 14.0721 26.4625 15.3778 25.8295C15.4264 26.2667 15.7974 26.6068 16.2477 26.6068H16.4678C16.9512 26.6068 17.3431 26.2148 17.3431 25.7314C17.3431 25.5078 17.2592 25.3039 17.1213 25.1492C17.1535 25.1388 17.186 25.1286 17.2187 25.1184C19.8861 24.2841 23.449 23.8247 27.2513 23.8247C27.696 23.8247 28.1402 23.8312 28.5817 23.844C28.565 23.9443 28.5592 24.0348 28.5592 24.1119C28.5592 25.8829 31.1407 26.8093 33.6906 26.8093C35.6583 26.8093 37.3862 26.2873 38.2287 25.4424C39.8039 26.0588 40.934 26.9155 40.934 27.5026C40.9339 27.8292 40.6238 28.2838 39.8591 28.7704ZM25.5734 25.5701C25.5734 26.0535 25.1814 26.4454 24.6981 26.4454H24.4777C23.9943 26.4454 23.6024 26.0535 23.6024 25.5701C23.6024 25.0867 23.9943 24.6948 24.4777 24.6948H24.6981C25.1814 24.6948 25.5734 25.0867 25.5734 25.5701ZM30.4907 29.0681C30.4907 29.5515 30.0988 29.9434 29.6154 29.9434H29.3951C28.9118 29.9434 28.5198 29.5515 28.5198 29.0681C28.5198 28.5847 28.9118 28.1928 29.3951 28.1928H29.6154C30.0988 28.1928 30.4907 28.5847 30.4907 29.0681ZM16.6126 20.3432V16.7056C16.6126 15.2425 16.4187 14.1597 15.9432 12.9684C15.7641 12.5193 15.9828 12.0101 16.4318 11.8309C16.8808 11.6516 17.3899 11.8705 17.5693 12.3195C18.1259 13.7143 18.3633 15.026 18.3633 16.7056V20.3432C18.3633 20.8266 17.9714 21.2185 17.488 21.2185C17.0046 21.2185 16.6126 20.8266 16.6126 20.3432ZM12.0041 40.5C10.0331 40.5 5.90523 38.9483 5.90523 37.0888V16.3968C5.90523 13.8556 6.52341 12.627 7.54784 10.5913C7.60419 10.4793 7.66196 10.3643 7.72115 10.2463H18.3982C18.4574 10.3644 18.5151 10.4794 18.5716 10.5915C19.5957 12.627 20.214 13.8557 20.214 16.3968V22.6252C20.214 23.1086 20.5166 22.8421 21 22.8421C21.4834 22.8421 21.9646 22.8602 21.9646 22.3769V16.3968C21.9646 13.4401 21.1973 11.9153 20.1354 9.80469C20.0052 9.54582 19.8707 9.27852 19.7321 8.99821C19.7277 8.98869 19.723 8.97917 19.7181 8.96987C19.309 8.14085 18.8649 7.19684 18.391 6.01835L18.3909 5.76058C18.781 5.32752 19.0188 4.75453 19.0188 4.12705V2.44275C19.0189 1.09588 17.923 0 16.5761 0H9.54287C8.196 0 7.10024 1.09588 7.10024 2.44275V3.81478L4.7959 2.86672C4.34917 2.68302 3.83733 2.89604 3.65341 3.3431C3.46949 3.79016 3.68284 4.30167 4.12979 4.48559L6.68994 5.53891L2.72888 8.00179C2.31825 8.25704 2.19243 8.79678 2.44768 9.20729C2.70283 9.61781 3.24268 9.74385 3.65319 9.48848L7.19171 7.28841C6.91566 7.91075 6.65154 8.4623 6.40076 8.97074C6.39628 8.9795 6.3919 8.98836 6.38763 8.99733C6.24901 9.27776 6.11443 9.54538 5.98412 9.80447C4.92205 11.915 4.15474 13.4401 4.15474 16.3968V37.0887C4.15474 39.9135 10.2559 41.9557 13.1922 41.9557C13.6756 41.9557 12.2743 41.4834 12.2743 41C12.2743 40.5166 12.4875 40.5 12.0041 40.5ZM8.85084 2.44275C8.85084 2.06112 9.16135 1.7506 9.54287 1.7506H16.576C16.9577 1.7506 17.2682 2.06112 17.2682 2.44275V4.12715C17.2682 4.34128 17.1704 4.53308 17.0172 4.66021C16.9989 4.6729 16.9811 4.68625 16.9638 4.70026C16.8531 4.77553 16.7197 4.81941 16.576 4.81941H9.54287C9.40053 4.81941 9.26814 4.77619 9.15807 4.70234C9.13914 4.6868 9.11967 4.67236 9.09975 4.65857C8.94767 4.53154 8.85084 4.34051 8.85084 4.12726V2.44275ZM9.39517 6.56563C9.44407 6.56848 9.4932 6.57001 9.54298 6.57001H16.5761C16.6258 6.57001 16.6753 6.56848 16.7243 6.56553C17.0094 7.27988 17.2875 7.91885 17.5524 8.49578H8.5668C8.8318 7.91885 9.10993 7.27999 9.39517 6.56563Z" fill="#01BC68"/>
</svg>
