<svg width="150" height="150" viewBox="0 0 150 150" fill="none" xmlns="http://www.w3.org/2000/svg">
<g clip-path="url(#clip0)">
<path d="M96.4483 102.779V100.167C97.1864 99.5711 97.8961 98.9181 98.5775 98.2368C104.033 92.2299 107.468 84.6645 108.4 76.604C113.303 75.857 117.722 73.2296 120.721 69.2795C124.838 63.4597 125.207 55.0848 121.772 44.5807C121.57 43.9749 121.17 43.4547 120.636 43.1045L119.075 42.054C119.305 32.5762 116.03 23.3468 109.876 16.1345C102.24 7.53245 90.5149 3.18886 74.9858 3.13208C59.4852 3.13208 47.7319 7.53245 40.0952 16.0209C33.9421 23.2332 30.6667 32.4627 30.897 41.9405L29.3356 42.9909C28.8018 43.3412 28.4019 43.8614 28.2 44.4671C24.7649 55.028 25.1339 63.3461 29.2504 69.166C32.238 73.1437 36.6572 75.8013 41.5714 76.5756C42.5076 84.6489 45.9533 92.225 51.4226 98.2368C52.0986 98.9167 52.809 99.5612 53.5518 100.167V102.779C42.6786 104.88 -0.728886 115.072 0.00924051 144.029C0.00924051 145.597 1.28038 146.868 2.84819 146.868H147.152C148.72 146.868 149.991 145.597 149.991 144.029C150.729 115.072 107.321 104.88 96.4483 102.779ZM39.8681 70.2448C37.4557 69.4346 35.3531 67.8977 33.8495 65.8444L33.9914 65.8728C31.1525 61.7279 30.897 55.4539 33.4236 47.1641L35.4961 45.7731C36.368 45.1911 36.8481 44.1762 36.7452 43.1328C36.2676 34.6479 39.0274 26.2975 44.4671 19.7683C50.8832 12.5006 61.1885 8.86675 74.9858 8.80997C88.7831 8.75319 99.0885 12.5006 105.618 19.7683C111.058 26.2975 113.818 34.6479 113.34 43.1328C113.237 44.1762 113.717 45.1911 114.589 45.7731L116.662 47.1641C119.188 55.4255 119.018 61.7279 116.094 65.8728C114.58 67.9278 112.468 69.4648 110.047 70.2732C113.471 66.3767 115.144 61.2446 114.674 56.0784C114.142 52.9701 112.522 50.1528 110.104 48.1294C108.883 19.7399 88.9818 16.5603 80.4082 16.5603C78.5934 16.555 76.7807 16.6881 74.9858 16.9578C73.1913 16.6877 71.3782 16.555 69.5634 16.5603C61.0466 16.5603 41.174 19.6831 39.8681 48.1294C37.434 50.1365 35.7938 52.9442 35.2406 56.05C34.7672 61.2166 36.4407 66.3501 39.8681 70.2448ZM104.454 46.9654C92.5415 47.6539 80.7035 44.6818 70.5287 38.4486C69.3771 37.6398 67.8068 37.797 66.838 38.8176C61.1601 44.9214 50.798 46.3409 45.8014 46.6531C47.3345 26.5818 59.4852 22.2098 69.7054 22.2098C71.3321 22.1981 72.9567 22.3312 74.56 22.6073C74.9347 22.6839 75.3208 22.6839 75.6956 22.6073C77.2989 22.3319 78.9234 22.1988 80.5502 22.2098C90.6852 22.2098 102.893 26.6953 104.312 46.937L104.454 46.9654ZM46.7951 70.7842L46.9086 70.8126C46.9147 70.1128 46.662 69.4353 46.1989 68.9105C42.3095 64.4533 40.521 60.3936 41.0036 57.0437C41.235 55.1778 42.1566 53.4663 43.5871 52.2459C47.3345 52.2459 60.6208 51.5361 69.1376 44.1832C78.7293 49.6975 89.5862 52.632 100.65 52.7001C102.552 52.7001 104.482 52.7001 106.498 52.3878C107.89 53.5759 108.798 55.2317 109.053 57.0437C109.536 60.3369 107.747 64.4533 103.858 68.9105C103.395 69.4353 103.142 70.1128 103.148 70.8126C103.148 70.8126 103.148 71.3804 103.148 72.2888L86.6255 81.1463C83.3465 78.0419 78.1715 78.1835 75.0671 81.4625C71.9627 84.7415 72.1043 89.9165 75.3833 93.0209C78.6623 96.1253 83.8373 95.9837 86.9417 92.7048C88.3803 91.1852 89.1816 89.172 89.1805 87.0797C89.1933 86.8242 89.1933 86.5687 89.1805 86.3132L102.211 79.3294C101.093 84.9275 98.4614 90.1117 94.6029 94.3191C89.5702 99.1644 82.7578 101.713 75.7807 101.36H74.3613C67.3991 101.705 60.6016 99.1694 55.5674 94.3474C46.5964 85.4048 46.7951 70.9261 46.7951 70.7842ZM83.5027 87.0797C83.5027 88.4751 82.3713 89.6064 80.976 89.6064C79.5807 89.6064 78.4493 88.4751 78.4493 87.0797C78.4493 85.6844 79.5807 84.5531 80.976 84.5531C82.3713 84.5531 83.5027 85.6844 83.5027 87.0797ZM72.1469 141.02H5.7723C8.01507 119.699 42.6786 110.785 53.5234 108.485V113.567C53.5234 120.012 61.3589 124.923 72.1469 125.746V141.02ZM59.2013 113.567V113.482V103.773C63.9203 105.961 69.0751 107.049 74.2761 106.952H75.6956C80.8965 107.049 86.0513 105.961 90.7704 103.773V113.567C90.7704 116.264 84.6098 120.153 74.9858 120.153C65.3618 120.153 59.2013 116.264 59.2013 113.567ZM77.8248 141.105V125.718C88.6128 124.98 96.4483 120.04 96.4483 113.539V108.571C107.378 110.842 141.871 119.756 144.199 141.105H77.8248Z" fill="#01BC68"/>
</g>
<defs>
<clipPath id="clip0">
<rect width="150" height="150" fill="white"/>
</clipPath>
</defs>
</svg>
