<svg width="45" height="45" viewBox="0 0 45 45" fill="none" xmlns="http://www.w3.org/2000/svg">
<g clip-path="url(#clip0)">
<path d="M42.8546 26.3579H42.1812V20.2921C42.1812 19.3318 41.7032 18.4815 40.9733 17.9649V17.139C40.9733 15.941 39.9987 14.9663 38.8006 14.9663H38.2978L40.2217 12.1433C40.8665 11.1971 40.6213 9.90253 39.6751 9.25759L26.6206 0.361296C26.1622 0.0488448 25.6097 -0.0664677 25.0645 0.0369796C24.5195 0.140251 24.0472 0.449538 23.7349 0.907976L12.4672 17.4422H9.3317L10.0882 9.78431C10.0967 9.69801 10.1528 9.62321 10.231 9.59377C11.2056 9.2263 12.0502 8.54005 12.6092 7.66149C12.6533 7.59232 12.7363 7.55277 12.8223 7.56147L17.7402 8.04733C18.0928 8.08152 18.4065 7.8247 18.4413 7.47226C18.4761 7.11982 18.2187 6.80596 17.8662 6.77116L12.9483 6.2853C12.3775 6.2294 11.8331 6.49246 11.5272 6.97304C11.1162 7.61904 10.4952 8.12353 9.77862 8.39371C9.23924 8.59709 8.86887 9.08154 8.81191 9.65819L8.04305 17.4421H7.2254L8.42177 5.33046C8.46483 4.89452 8.85392 4.57425 9.29039 4.61793L19.2285 5.59967C19.581 5.63368 19.8948 5.37704 19.9296 5.0246C19.9644 4.67216 19.707 4.3583 19.3546 4.32349L9.41642 3.34176C8.27701 3.22934 7.2581 4.06474 7.14551 5.20433L6.18117 14.9663H4.53893C3.34099 14.9663 2.36628 15.941 2.36628 17.139V17.7024C1.38621 18.1536 0.703827 19.1443 0.703827 20.2921V42.15C0.703827 43.7215 1.98228 45 3.55386 45H39.3312C40.9027 45 42.1812 43.7215 42.1812 42.15V36.0844H42.8546C43.6495 36.0844 44.2961 35.4377 44.2961 34.643V27.7993C44.2962 27.0045 43.6495 26.3579 42.8546 26.3579ZM38.8006 16.2488C39.2916 16.2488 39.6909 16.6481 39.6909 17.1391V17.4658C39.5729 17.4508 39.4531 17.4423 39.3312 17.4423H36.6106L37.4238 16.2488H38.8006ZM24.7946 1.63009C24.9141 1.45474 25.0947 1.33644 25.3032 1.29689C25.353 1.28749 25.403 1.28274 25.4527 1.28274C25.6106 1.28274 25.765 1.33003 25.8984 1.42091L38.9529 10.3172C39.3148 10.5639 39.4087 11.0591 39.162 11.421L35.0588 17.442H34.0741L36.0858 14.4901C36.412 14.0113 36.4389 13.4021 36.1557 12.8999C35.7794 12.2329 35.6268 11.4474 35.7261 10.6881C35.8 10.1232 35.5514 9.5718 35.0775 9.24889L28.3101 4.63709C27.8361 4.31409 27.2319 4.28447 26.7333 4.55983C26.0631 4.92985 25.2762 5.07513 24.5177 4.96896C23.9552 4.89004 23.3847 5.14404 23.0633 5.61557L15.0038 17.4421H14.0191L24.7946 1.63009ZM25.077 12.5189C22.2846 12.5189 19.9924 14.6963 19.8056 17.4421H16.5555L24.1228 6.33777C24.1658 6.27458 24.2372 6.23696 24.3104 6.23696C24.3201 6.23696 24.3299 6.23766 24.3396 6.23898C25.3713 6.3833 26.4414 6.1859 27.353 5.68255C27.4247 5.64282 27.5168 5.64853 27.5878 5.69687L34.3553 10.3088C34.4261 10.3571 34.4651 10.4408 34.4545 10.522C34.3194 11.5546 34.527 12.6228 35.0388 13.53C35.0799 13.6029 35.0749 13.6962 35.0262 13.7679L32.5223 17.442H30.3485C30.1616 14.6963 27.8695 12.5189 25.077 12.5189ZM29.0626 17.4422H21.0914C21.2751 15.4041 22.9919 13.8014 25.077 13.8014C27.1621 13.8014 28.879 15.4041 29.0626 17.4422ZM3.64869 17.139C3.64869 16.648 4.04798 16.2487 4.53893 16.2487H6.05452L5.93666 17.4421H3.64869V17.139ZM1.98624 20.2921C1.98624 19.4278 2.68945 18.7246 3.55386 18.7246H39.3312C40.1956 18.7246 40.8988 19.4278 40.8988 20.2921V22.0713H1.98624V20.2921ZM40.8988 42.15C40.8988 43.0144 40.1956 43.7176 39.3312 43.7176H3.55386C2.68945 43.7176 1.98624 43.0144 1.98624 42.15V40.3708H9.54976C9.90395 40.3708 8.90859 40.0837 8.90859 39.7296C8.90859 39.3755 9.90387 39.0885 9.54976 39.0885H1.98624V23.3537H40.8988V26.3579H34.8021C32.8812 26.3579 31.2172 27.4776 30.4275 29.0984C30.4248 29.1038 30.4218 29.1091 30.4191 29.1145C30.4124 29.1283 30.4066 29.1427 30.4001 29.1566C30.3061 29.3563 30.2244 29.5631 30.1578 29.7765L30.1573 29.7783C30.0154 30.2344 29.9388 30.7189 29.9388 31.2211C29.9388 33.9027 32.1204 36.0844 34.802 36.0844H40.8987V39.0885H9.54976C9.19556 39.0885 8.90859 39.3755 8.90859 39.7296C8.90859 40.0837 9.19564 40.3708 9.54976 40.3708H40.8988V42.15ZM43.0138 34.6429C43.0138 34.7306 42.9424 34.8019 42.8546 34.8019H34.8022C33.4448 34.8019 32.2612 34.0427 31.6542 32.9265C31.6266 32.8758 31.6002 32.8243 31.575 32.7722C31.5246 32.6679 31.4792 32.5607 31.439 32.451C31.2982 32.0673 31.2214 31.653 31.2214 31.2211C31.2214 30.7892 31.2983 30.3749 31.439 29.9912C31.4793 29.8816 31.5247 29.7744 31.575 29.67C31.6002 29.6179 31.6266 29.5664 31.6542 29.5157C32.2612 28.3996 33.4448 27.6403 34.8022 27.6403H42.8546C42.9423 27.6403 43.0138 27.7116 43.0138 27.7993V34.6429Z" fill="#01BC68"/>
<path d="M34.9525 28.6196C33.5179 28.6196 32.3509 29.7867 32.3509 31.2212C32.3509 32.6557 33.5179 33.8227 34.9525 33.8227C36.387 33.8227 37.554 32.6557 37.554 31.2212C37.554 29.7867 36.387 28.6196 34.9525 28.6196ZM34.9525 32.5403C34.2251 32.5403 33.6333 31.9485 33.6333 31.2212C33.6333 30.4939 34.2251 29.902 34.9525 29.902C35.6798 29.902 36.2716 30.4938 36.2716 31.2212C36.2716 31.9486 35.6798 32.5403 34.9525 32.5403Z" fill="#01BC68"/>
</g>
<defs>
<clipPath id="clip0">
<rect width="45" height="45" fill="white"/>
</clipPath>
</defs>
</svg>
