<svg width="134" height="27" viewBox="0 0 134 27" fill="none" xmlns="http://www.w3.org/2000/svg">
<path d="M5.64844 21.1484H19.1484V26H0.234375V0.792969H18.7793V5.66211H5.64844V10.707H15.8965V15.5586H5.64844V21.1484ZM24.8438 23.6094C22.957 21.7695 22.0137 19.625 22.0137 17.1758C22.0137 14.7266 22.957 12.5879 24.8438 10.7598C26.7305 8.91992 28.9688 8 31.5586 8C32.4727 8 33.3398 8.12891 34.1602 8.38672C34.9922 8.63281 35.6719 8.93164 36.1992 9.2832C36.7266 9.62305 37.1953 9.96875 37.6055 10.3203C38.0156 10.6719 38.3145 10.9766 38.502 11.2344L38.7656 11.6035L35.707 14.6621C35.6133 14.498 35.4551 14.2812 35.2324 14.0117C35.0215 13.7422 34.5527 13.3965 33.8262 12.9746C33.1113 12.541 32.3555 12.3242 31.5586 12.3242C30.2812 12.3242 29.1797 12.7988 28.2539 13.748C27.3398 14.6973 26.8828 15.8457 26.8828 17.1934C26.8828 18.5293 27.3457 19.6719 28.2715 20.6211C29.1973 21.5703 30.293 22.0449 31.5586 22.0449C32.3555 22.0449 33.1113 21.8516 33.8262 21.4648C34.5527 21.0781 35.0801 20.6914 35.4082 20.3047L35.8828 19.707L38.7656 22.7656C38.6953 22.8594 38.5957 22.9941 38.4668 23.1699C38.3496 23.334 38.0684 23.6211 37.623 24.0312C37.1777 24.4297 36.6973 24.7871 36.1816 25.1035C35.666 25.4082 34.9922 25.6953 34.1602 25.9648C33.3398 26.2227 32.4727 26.3516 31.5586 26.3516C28.9688 26.3516 26.7305 25.4375 24.8438 23.6094ZM47.2559 13.8535C46.4004 14.7559 45.9727 15.8691 45.9727 17.1934C45.9727 18.5059 46.4004 19.6133 47.2559 20.5156C48.1113 21.4062 49.125 21.8516 50.2969 21.8516C51.4688 21.8516 52.4824 21.4062 53.3379 20.5156C54.1934 19.6133 54.6211 18.5059 54.6211 17.1934C54.6211 15.8691 54.1934 14.7559 53.3379 13.8535C52.4824 12.9512 51.4688 12.5 50.2969 12.5C49.125 12.5 48.1113 12.9512 47.2559 13.8535ZM56.8535 10.7598C58.7168 12.5879 59.6484 14.7266 59.6484 17.1758C59.6484 19.625 58.7168 21.7695 56.8535 23.6094C55.002 25.4375 52.8164 26.3516 50.2969 26.3516C47.7773 26.3516 45.5859 25.4375 43.7227 23.6094C41.8594 21.7695 40.9277 19.625 40.9277 17.1758C40.9277 14.7266 41.8594 12.5879 43.7227 10.7598C45.5859 8.91992 47.7773 8 50.2969 8C52.8164 8 55.002 8.91992 56.8535 10.7598Z" fill="#01BC68"/>
<path d="M77.8242 11.7793L86.543 0.792969H91.3242V26H85.9277V9.19531L77.8242 19.5137L69.7383 9.26562V26H64.3242V0.792969H69.1934L77.8242 11.7793ZM101.766 8.35156V26H96.8965V8.35156H101.766ZM101.344 1.35547C101.859 1.84766 102.117 2.50391 102.117 3.32422C102.117 4.13281 101.859 4.7832 101.344 5.27539C100.828 5.76758 100.125 6.01367 99.2344 6.01367C98.4141 6.01367 97.7578 5.76758 97.2656 5.27539C96.7852 4.7832 96.5449 4.13281 96.5449 3.32422C96.5449 2.50391 96.791 1.84766 97.2832 1.35547C97.7754 0.863281 98.4258 0.617188 99.2344 0.617188C100.125 0.617188 100.828 0.863281 101.344 1.35547ZM111.68 0.792969V26H106.811V0.792969H111.68ZM123.738 19.1621L121.594 21.6758V26H116.725V0.792969H121.594V15.5586L127.887 8.35156H133.459L126.814 15.9277L133.828 26H128.432L123.738 19.1621Z" fill="#082E48"/>
</svg>
